<mxfile host="65bd71144e">
    <diagram id="CRVF2xT7Mgd7am997Blh" name="Page-1">
        <mxGraphModel dx="1130" dy="792" grid="1" gridSize="10" guides="1" tooltips="1" connect="1" arrows="1" fold="1" page="1" pageScale="1" pageWidth="850" pageHeight="1100" math="0" shadow="0">
            <root>
                <mxCell id="0"/>
                <mxCell id="1" parent="0"/>
                <mxCell id="4" value="" style="edgeStyle=none;html=1;fontSize=18;" edge="1" parent="1" source="2" target="3">
                    <mxGeometry relative="1" as="geometry"/>
                </mxCell>
                <mxCell id="2" value="&lt;font size=&quot;3&quot;&gt;start&lt;/font&gt;" style="rounded=1;whiteSpace=wrap;html=1;" vertex="1" parent="1">
                    <mxGeometry x="130" y="70" width="120" height="60" as="geometry"/>
                </mxCell>
                <mxCell id="6" value="" style="edgeStyle=none;html=1;fontSize=18;" edge="1" parent="1" source="3" target="5">
                    <mxGeometry relative="1" as="geometry"/>
                </mxCell>
                <mxCell id="3" value="khai báo: D1,M1,Y1,D2,Y2,M2,Dht,Mht,Yht,&lt;br&gt;TUOI1,TUOI2" style="rounded=0;whiteSpace=wrap;html=1;fontSize=18;" vertex="1" parent="1">
                    <mxGeometry x="35" y="170" width="310" height="80" as="geometry"/>
                </mxCell>
                <mxCell id="8" value="" style="edgeStyle=none;html=1;fontSize=18;" edge="1" parent="1" source="5" target="7">
                    <mxGeometry relative="1" as="geometry"/>
                </mxCell>
                <mxCell id="5" value="nhập D1,M1,Y1,D2,M2,Y2,Dht,Mht,Yht" style="whiteSpace=wrap;html=1;fontSize=18;rounded=0;" vertex="1" parent="1">
                    <mxGeometry x="35" y="270" width="315" height="60" as="geometry"/>
                </mxCell>
                <mxCell id="10" value="" style="edgeStyle=none;html=1;fontSize=18;" edge="1" parent="1" source="7" target="9">
                    <mxGeometry relative="1" as="geometry"/>
                </mxCell>
                <mxCell id="7" value="TUOI1=Yht-Y1&lt;br&gt;TUOI2=Yht-Y1" style="whiteSpace=wrap;html=1;fontSize=18;rounded=0;" vertex="1" parent="1">
                    <mxGeometry x="126.25" y="360" width="132.5" height="70" as="geometry"/>
                </mxCell>
                <mxCell id="12" value="" style="edgeStyle=none;html=1;fontSize=14;" edge="1" parent="1" source="9" target="11">
                    <mxGeometry relative="1" as="geometry"/>
                </mxCell>
                <mxCell id="9" value="&lt;font style=&quot;font-size: 14px;&quot;&gt;TUOI1=TUOI2&lt;/font&gt;" style="rhombus;whiteSpace=wrap;html=1;fontSize=18;rounded=0;" vertex="1" parent="1">
                    <mxGeometry x="300" y="340" width="105" height="110" as="geometry"/>
                </mxCell>
                <mxCell id="14" value="" style="edgeStyle=none;html=1;fontSize=14;" edge="1" parent="1" source="11" target="13">
                    <mxGeometry relative="1" as="geometry"/>
                </mxCell>
                <mxCell id="20" value="" style="edgeStyle=none;html=1;fontSize=14;" edge="1" parent="1" source="11" target="19">
                    <mxGeometry relative="1" as="geometry"/>
                </mxCell>
                <mxCell id="11" value="&lt;span style=&quot;font-size: 14px;&quot;&gt;M1=M2&lt;/span&gt;" style="rhombus;whiteSpace=wrap;html=1;fontSize=18;rounded=0;" vertex="1" parent="1">
                    <mxGeometry x="440" y="340" width="105" height="110" as="geometry"/>
                </mxCell>
                <mxCell id="16" value="" style="edgeStyle=none;html=1;fontSize=14;" edge="1" parent="1" source="13" target="15">
                    <mxGeometry relative="1" as="geometry"/>
                </mxCell>
                <mxCell id="18" value="" style="edgeStyle=none;html=1;fontSize=14;" edge="1" parent="1" source="13" target="17">
                    <mxGeometry relative="1" as="geometry"/>
                </mxCell>
                <mxCell id="13" value="&lt;span style=&quot;font-size: 14px;&quot;&gt;D1=D2&lt;/span&gt;" style="rhombus;whiteSpace=wrap;html=1;fontSize=18;rounded=0;" vertex="1" parent="1">
                    <mxGeometry x="580" y="340" width="105" height="110" as="geometry"/>
                </mxCell>
                <mxCell id="15" value="count=&amp;gt;in1 bằng 2" style="shape=process;whiteSpace=wrap;html=1;backgroundOutline=1;fontSize=18;rounded=0;" vertex="1" parent="1">
                    <mxGeometry x="730" y="360" width="130" height="70" as="geometry"/>
                </mxCell>
                <mxCell id="17" value="&lt;span style=&quot;font-size: 14px;&quot;&gt;D1&amp;gt;D2&lt;/span&gt;" style="rhombus;whiteSpace=wrap;html=1;fontSize=18;rounded=0;" vertex="1" parent="1">
                    <mxGeometry x="580" y="530" width="105" height="110" as="geometry"/>
                </mxCell>
                <mxCell id="22" value="" style="edgeStyle=none;html=1;fontSize=14;" edge="1" parent="1" source="19" target="21">
                    <mxGeometry relative="1" as="geometry"/>
                </mxCell>
                <mxCell id="19" value="&lt;span style=&quot;font-size: 14px;&quot;&gt;M1=M2&lt;/span&gt;" style="rhombus;whiteSpace=wrap;html=1;fontSize=18;rounded=0;" vertex="1" parent="1">
                    <mxGeometry x="440" y="530" width="105" height="110" as="geometry"/>
                </mxCell>
                <mxCell id="21" value="count=&amp;gt; in 1 lớn hơn 2" style="shape=process;whiteSpace=wrap;html=1;backgroundOutline=1;fontSize=18;rounded=0;" vertex="1" parent="1">
                    <mxGeometry x="292.5" y="555" width="120" height="60" as="geometry"/>
                </mxCell>
                <mxCell id="24" value="" style="edgeStyle=none;html=1;fontSize=14;" edge="1" parent="1" source="23" target="21">
                    <mxGeometry relative="1" as="geometry"/>
                </mxCell>
                <mxCell id="27" value="" style="edgeStyle=none;html=1;fontSize=14;" edge="1" parent="1" source="23" target="26">
                    <mxGeometry relative="1" as="geometry"/>
                </mxCell>
                <mxCell id="23" value="TUOI1&amp;gt;TUOI2" style="rhombus;whiteSpace=wrap;html=1;fontSize=14;" vertex="1" parent="1">
                    <mxGeometry x="130" y="530" width="105" height="110" as="geometry"/>
                </mxCell>
                <mxCell id="25" value="" style="edgeStyle=elbowEdgeStyle;elbow=vertical;endArrow=classic;html=1;curved=0;rounded=0;endSize=8;startSize=8;fontSize=14;exitX=0.5;exitY=1;exitDx=0;exitDy=0;entryX=0.5;entryY=0;entryDx=0;entryDy=0;" edge="1" parent="1" source="9" target="23">
                    <mxGeometry width="50" height="50" relative="1" as="geometry">
                        <mxPoint x="400" y="570" as="sourcePoint"/>
                        <mxPoint x="450" y="520" as="targetPoint"/>
                    </mxGeometry>
                </mxCell>
                <mxCell id="26" value="count =&amp;gt; in 1 nhỏ hơn 2" style="shape=process;whiteSpace=wrap;html=1;backgroundOutline=1;fontSize=14;" vertex="1" parent="1">
                    <mxGeometry x="122.5" y="680" width="120" height="60" as="geometry"/>
                </mxCell>
                <mxCell id="28" value="End" style="rounded=1;whiteSpace=wrap;html=1;fontSize=14;" vertex="1" parent="1">
                    <mxGeometry x="430" y="750" width="130" height="70" as="geometry"/>
                </mxCell>
                <mxCell id="29" value="" style="edgeStyle=segmentEdgeStyle;endArrow=classic;html=1;curved=0;rounded=0;endSize=8;startSize=8;fontSize=14;exitX=0.5;exitY=1;exitDx=0;exitDy=0;entryX=1;entryY=0.5;entryDx=0;entryDy=0;" edge="1" parent="1" source="15" target="28">
                    <mxGeometry width="50" height="50" relative="1" as="geometry">
                        <mxPoint x="700" y="700" as="sourcePoint"/>
                        <mxPoint x="750" y="650" as="targetPoint"/>
                        <Array as="points">
                            <mxPoint x="810" y="430"/>
                            <mxPoint x="810" y="785"/>
                        </Array>
                    </mxGeometry>
                </mxCell>
                <mxCell id="30" value="" style="edgeStyle=segmentEdgeStyle;endArrow=classic;html=1;curved=0;rounded=0;endSize=8;startSize=8;fontSize=14;exitX=0.5;exitY=1;exitDx=0;exitDy=0;entryX=0;entryY=0.5;entryDx=0;entryDy=0;" edge="1" parent="1" source="26" target="28">
                    <mxGeometry width="50" height="50" relative="1" as="geometry">
                        <mxPoint x="400" y="660" as="sourcePoint"/>
                        <mxPoint x="450" y="610" as="targetPoint"/>
                        <Array as="points">
                            <mxPoint x="183" y="785"/>
                        </Array>
                    </mxGeometry>
                </mxCell>
                <mxCell id="31" value="" style="endArrow=none;html=1;fontSize=14;entryX=0.5;entryY=1;entryDx=0;entryDy=0;" edge="1" parent="1" target="21">
                    <mxGeometry width="50" height="50" relative="1" as="geometry">
                        <mxPoint x="353" y="780" as="sourcePoint"/>
                        <mxPoint x="450" y="610" as="targetPoint"/>
                    </mxGeometry>
                </mxCell>
                <mxCell id="32" value="" style="edgeStyle=segmentEdgeStyle;endArrow=classic;html=1;curved=0;rounded=0;endSize=8;startSize=8;fontSize=14;fillColor=#008a00;strokeColor=#005700;exitX=0.5;exitY=1;exitDx=0;exitDy=0;entryX=1;entryY=0.5;entryDx=0;entryDy=0;" edge="1" parent="1" source="17" target="26">
                    <mxGeometry width="50" height="50" relative="1" as="geometry">
                        <mxPoint x="400" y="460" as="sourcePoint"/>
                        <mxPoint x="250" y="690" as="targetPoint"/>
                        <Array as="points">
                            <mxPoint x="633" y="710"/>
                        </Array>
                    </mxGeometry>
                </mxCell>
                <mxCell id="33" value="" style="endArrow=none;html=1;fontSize=14;entryX=0.5;entryY=1;entryDx=0;entryDy=0;fillColor=#008a00;strokeColor=#005700;" edge="1" parent="1" target="19">
                    <mxGeometry width="50" height="50" relative="1" as="geometry">
                        <mxPoint x="490" y="710" as="sourcePoint"/>
                        <mxPoint x="450" y="410" as="targetPoint"/>
                    </mxGeometry>
                </mxCell>
            </root>
        </mxGraphModel>
    </diagram>
</mxfile>